<svg xmlns="http://www.w3.org/2000/svg" viewBox="-13.4 -176.2 1480.1 250.9" role="img" aria-label="fénix bipolar">
<circle cx="112.02" cy="-50.77" r="108.88" fill="none" stroke="#111111" stroke-width="6.27"/>
<circle cx="112.02" cy="-109.13" r="50.52" fill="none" stroke="#111111" stroke-width="6.27"/>
<circle cx="61.48" cy="-21.59" r="50.52" fill="none" stroke="#111111" stroke-width="6.27"/>
<circle cx="162.56" cy="-21.59" r="50.52" fill="none" stroke="#111111" stroke-width="6.27"/>
<path transform="translate(300.21,0)" d="M51.5 -16.1Q51.5 -13.200000000000001 52.650000000000006 -11.600000000000001Q53.800000000000004 -10.0 56.300000000000004 -9.700000000000001L66.5 -8.5Q68.8 -8.3 69.85 -7.1000000000000005Q70.9 -5.9 70.9 -4.2Q70.9 0.0 65.60000000000001 0.0H14.8Q12.4 0.0 11.0 -1.1Q9.600000000000001 -2.2 9.600000000000001 -4.0Q9.600000000000001 -5.800000000000001 10.650000000000002 -6.9Q11.700000000000001 -8.0 13.9 -8.6L18.1 -9.5Q20.900000000000002 -10.3 22.150000000000002 -11.8Q23.400000000000002 -13.3 23.400000000000002 -15.9V-75.5Q23.400000000000002 -77.5 22.400000000000002 -78.80000000000001Q21.400000000000002 -80.10000000000001 18.7 -81.10000000000001L13.600000000000001 -82.7Q10.3 -84.0 9.100000000000001 -85.2Q7.9 -86.4 7.9 -87.9Q7.9 -89.60000000000001 9.15 -90.65Q10.4 -91.7 13.0 -91.7H29.5L23.5 -88.30000000000001V-91.5Q23.5 -94.4 21.9 -97.05000000000001Q20.3 -99.7 18.200000000000003 -102.65Q16.1 -105.60000000000001 14.5 -109.45000000000002Q12.9 -113.30000000000001 12.9 -118.5Q12.9 -130.70000000000002 21.85 -138.20000000000002Q30.8 -145.70000000000002 46.6 -145.70000000000002Q56.800000000000004 -145.70000000000002 63.8 -142.5Q70.8 -139.3 74.45 -133.95Q78.10000000000001 -128.6 78.10000000000001 -122.4Q78.10000000000001 -116.0 74.75 -112.7Q71.4 -109.4 66.0 -109.4Q60.1 -109.4 56.6 -113.0Q53.1 -116.60000000000001 53.1 -122.60000000000001V-128.6Q53.1 -133.4 50.5 -135.85000000000002Q47.900000000000006 -138.3 43.300000000000004 -138.3Q37.800000000000004 -138.20000000000002 34.95 -134.85000000000002Q32.1 -131.5 32.1 -125.30000000000001Q32.1 -120.7 33.8 -117.0Q35.5 -113.30000000000001 38.150000000000006 -110.20000000000002Q40.800000000000004 -107.10000000000001 43.400000000000006 -104.20000000000002Q46.0 -101.30000000000001 47.7 -98.30000000000001Q49.400000000000006 -95.30000000000001 49.400000000000006 -91.9V-87.30000000000001L46.2 -91.7H69.60000000000001Q72.0 -91.7 73.30000000000001 -90.75Q74.60000000000001 -89.80000000000001 74.60000000000001 -88.0Q74.60000000000001 -85.4 72.0 -83.60000000000001Q69.4 -81.80000000000001 63.6 -81.80000000000001H51.5ZM175.60000000000002 -59.1Q175.60000000000002 -53.800000000000004 172.60000000000002 -50.95Q169.60000000000002 -48.1 163.8 -48.1H101.4V-55.7H142.3Q147.4 -55.7 147.4 -60.300000000000004Q147.4 -73.5 142.60000000000002 -80.35Q137.8 -87.2 129.7 -87.2Q123.5 -87.2 118.7 -83.4Q113.9 -79.60000000000001 111.2 -72.55000000000001Q108.5 -65.5 108.5 -55.5Q108.5 -36.2 117.55 -26.5Q126.6 -16.8 141.7 -16.8Q150.5 -16.8 157.15 -20.3Q163.8 -23.8 167.5 -30.3Q169.3 -32.300000000000004 170.35000000000002 -33.0Q171.4 -33.7 172.5 -33.7Q174.10000000000002 -33.7 174.8 -32.25Q175.5 -30.8 175.5 -28.8Q175.10000000000002 -20.400000000000002 169.5 -13.250000000000002Q163.9 -6.1000000000000005 154.4 -1.8000000000000003Q144.9 2.5 132.6 2.5Q118.1 2.5 106.9 -3.45Q95.7 -9.4 89.35 -20.150000000000002Q83.0 -30.900000000000002 83.0 -45.300000000000004Q83.0 -60.400000000000006 89.05 -72.10000000000001Q95.1 -83.80000000000001 106.4 -90.4Q117.7 -97.0 133.4 -97.0Q146.8 -97.0 156.25 -92.15Q165.7 -87.30000000000001 170.65 -78.75Q175.60000000000002 -70.2 175.60000000000002 -59.1ZM136.4 -129.70000000000002Q139.4 -136.20000000000002 143.10000000000002 -139.85000000000002Q146.8 -143.5 152.5 -142.8Q157.5 -142.20000000000002 160.0 -138.65Q162.5 -135.1 162.0 -131.1Q161.4 -126.7 158.45 -123.5Q155.5 -120.30000000000001 150.2 -117.30000000000001L132.5 -104.9Q131.0 -104.2 129.45 -104.2Q127.89999999999999 -104.2 126.8 -105.10000000000001Q125.69999999999999 -106.2 125.94999999999999 -107.55000000000001Q126.19999999999999 -108.9 127.0 -110.2ZM226.70000000000002 -90.2V-16.0Q226.70000000000002 -12.9 227.60000000000002 -11.5Q228.50000000000003 -10.100000000000001 230.3 -9.4L233.90000000000003 -8.4Q237.10000000000002 -7.1000000000000005 237.10000000000002 -4.4Q237.10000000000002 0.0 231.50000000000003 0.0H192.90000000000003Q190.10000000000002 0.0 188.8 -1.1Q187.50000000000003 -2.2 187.50000000000003 -4.1000000000000005Q187.50000000000003 -5.6000000000000005 188.35000000000002 -6.65Q189.20000000000002 -7.7 191.10000000000002 -8.4L195.10000000000002 -9.4Q196.90000000000003 -10.100000000000001 197.75000000000003 -11.5Q198.60000000000002 -12.9 198.60000000000002 -16.0V-73.3Q198.60000000000002 -75.9 197.85000000000002 -77.0Q197.10000000000002 -78.10000000000001 195.40000000000003 -78.4L190.10000000000002 -78.80000000000001Q188.3 -79.2 187.5 -80.1Q186.70000000000002 -81.0 186.70000000000002 -82.4Q186.70000000000002 -84.10000000000001 187.65000000000003 -85.10000000000001Q188.60000000000002 -86.10000000000001 191.3 -87.10000000000001L209.90000000000003 -93.9Q213.70000000000002 -95.30000000000001 216.0 -95.9Q218.3 -96.5 220.40000000000003 -96.5Q223.50000000000003 -96.5 225.10000000000002 -94.75Q226.70000000000002 -93.0 226.70000000000002 -90.2ZM223.70000000000002 -67.9 219.10000000000002 -72.60000000000001 223.00000000000003 -76.10000000000001Q235.60000000000002 -87.4 244.60000000000002 -92.2Q253.60000000000002 -97.0 261.70000000000005 -97.0Q274.0 -97.0 280.8 -88.75Q287.6 -80.5 289.1 -66.8L294.70000000000005 -16.3Q295.0 -13.0 295.8 -11.5Q296.6 -10.0 298.5 -9.4L302.0 -8.4Q303.90000000000003 -7.7 304.80000000000007 -6.65Q305.70000000000005 -5.6000000000000005 305.70000000000005 -4.1000000000000005Q305.70000000000005 -2.2 304.40000000000003 -1.1Q303.1 0.0 300.20000000000005 0.0H261.20000000000005Q255.70000000000005 0.0 255.70000000000005 -4.4Q255.70000000000005 -7.1000000000000005 258.8 -8.4L262.6 -9.4Q264.5 -10.100000000000001 265.55 -11.600000000000001Q266.6 -13.100000000000001 266.20000000000005 -16.3L261.0 -62.7Q260.0 -71.4 256.55 -75.80000000000001Q253.10000000000002 -80.2 246.40000000000003 -80.2Q242.20000000000002 -80.2 237.55 -78.0Q232.90000000000003 -75.8 227.70000000000002 -71.4ZM351.5 -90.2V-16.0Q351.5 -12.9 352.35 -11.45Q353.20000000000005 -10.0 355.0 -9.4L358.8 -8.4Q360.70000000000005 -7.800000000000001 361.6 -6.75Q362.5 -5.7 362.5 -4.1000000000000005Q362.5 -2.2 361.20000000000005 -1.1Q359.90000000000003 0.0 357.0 0.0H317.6Q314.8 0.0 313.5 -1.1Q312.2 -2.2 312.2 -4.1000000000000005Q312.2 -5.6000000000000005 313.1 -6.65Q314.0 -7.7 315.90000000000003 -8.4L319.8 -9.4Q321.6 -10.100000000000001 322.45000000000005 -11.5Q323.3 -12.9 323.3 -16.0V-73.3Q323.3 -75.9 322.55 -77.0Q321.8 -78.10000000000001 320.1 -78.4L314.8 -78.80000000000001Q313.0 -79.2 312.20000000000005 -80.1Q311.40000000000003 -81.0 311.40000000000003 -82.4Q311.40000000000003 -84.10000000000001 312.35 -85.10000000000001Q313.3 -86.10000000000001 316.0 -87.10000000000001L334.6 -93.9Q338.5 -95.30000000000001 340.85 -95.9Q343.20000000000005 -96.5 344.8 -96.5Q348.20000000000005 -96.5 349.85 -94.75Q351.5 -93.0 351.5 -90.2ZM335.2 -111.80000000000001Q327.2 -111.80000000000001 322.35 -115.95000000000002Q317.5 -120.10000000000001 317.5 -126.80000000000001Q317.5 -133.5 322.35 -137.55Q327.2 -141.6 335.2 -141.6Q343.3 -141.6 348.15 -137.55Q353.0 -133.5 353.0 -126.80000000000001Q353.0 -120.10000000000001 348.15 -115.95000000000002Q343.3 -111.80000000000001 335.2 -111.80000000000001ZM409.00000000000006 -51.300000000000004 417.00000000000006 -47.0 396.6 -19.8Q393.70000000000005 -15.9 394.25000000000006 -13.15Q394.80000000000007 -10.4 398.80000000000007 -9.200000000000001L402.00000000000006 -8.4Q403.90000000000003 -7.800000000000001 404.75 -6.800000000000001Q405.6 -5.800000000000001 405.6 -4.3Q405.6 -2.4000000000000004 404.15000000000003 -1.2500000000000002Q402.70000000000005 -0.1 400.20000000000005 -0.1H372.6Q370.20000000000005 -0.1 368.75000000000006 -1.2500000000000002Q367.30000000000007 -2.4000000000000004 367.30000000000007 -4.3Q367.30000000000007 -5.800000000000001 368.20000000000005 -6.8500000000000005Q369.1 -7.9 371.50000000000006 -9.0Q374.50000000000006 -10.100000000000001 376.75000000000006 -11.700000000000001Q379.00000000000006 -13.3 381.45000000000005 -16.05Q383.90000000000003 -18.8 387.40000000000003 -23.200000000000003ZM414.00000000000006 -78.7 432.90000000000003 -53.0 434.1 -51.6 460.1 -17.2Q463.30000000000007 -13.0 465.1500000000001 -11.3Q467.00000000000006 -9.600000000000001 469.50000000000006 -8.700000000000001Q471.50000000000006 -7.7 472.35 -6.7Q473.20000000000005 -5.7 473.20000000000005 -4.2Q473.20000000000005 -2.3000000000000003 471.75000000000006 -1.1500000000000001Q470.30000000000007 0.0 467.70000000000005 0.0H424.40000000000003Q421.80000000000007 0.0 420.30000000000007 -1.1500000000000001Q418.80000000000007 -2.3000000000000003 418.80000000000007 -4.3Q418.80000000000007 -5.800000000000001 419.6 -6.75Q420.40000000000003 -7.7 422.1 -8.1L425.40000000000003 -8.9Q428.70000000000005 -9.600000000000001 429.05000000000007 -11.25Q429.40000000000003 -12.9 427.1 -15.9L407.40000000000003 -43.1L406.1 -44.6L381.90000000000003 -78.10000000000001Q379.20000000000005 -81.80000000000001 377.1 -83.35000000000001Q375.00000000000006 -84.9 372.30000000000007 -85.7Q370.00000000000006 -86.5 369.20000000000005 -87.6Q368.40000000000003 -88.7 368.40000000000003 -90.4Q368.40000000000003 -92.4 369.85 -93.55000000000001Q371.30000000000007 -94.7 373.80000000000007 -94.7H416.30000000000007Q418.80000000000007 -94.7 420.25000000000006 -93.6Q421.70000000000005 -92.5 421.70000000000005 -90.5Q421.70000000000005 -89.10000000000001 421.05000000000007 -88.10000000000001Q420.40000000000003 -87.10000000000001 418.90000000000003 -86.4L415.6 -85.4Q412.50000000000006 -84.5 412.30000000000007 -82.95Q412.1 -81.4 414.00000000000006 -78.7ZM430.30000000000007 -44.300000000000004 422.30000000000007 -48.7 442.30000000000007 -74.9Q445.30000000000007 -78.9 444.75000000000006 -81.65Q444.20000000000005 -84.4 440.1 -85.60000000000001L436.80000000000007 -86.4Q435.00000000000006 -87.0 434.1500000000001 -88.05000000000001Q433.30000000000007 -89.10000000000001 433.30000000000007 -90.5Q433.30000000000007 -92.5 434.75000000000006 -93.6Q436.20000000000005 -94.7 438.70000000000005 -94.7H466.20000000000005Q468.80000000000007 -94.7 470.1500000000001 -93.6Q471.50000000000006 -92.5 471.50000000000006 -90.4Q471.50000000000006 -89.0 470.6 -87.95Q469.70000000000005 -86.9 467.30000000000007 -85.80000000000001Q462.90000000000003 -84.2 459.80000000000007 -81.2Q456.70000000000005 -78.2 451.50000000000006 -71.60000000000001Z" fill="#C65D2E"/>
<path transform="translate(832.31,0)" d="M58.512 2.76Q44.528 2.76 34.96 -4.186Q25.392 -11.132 20.47 -23.046Q15.548 -34.96 15.548 -49.772Q15.548 -64.768 20.47 -76.636Q25.392 -88.504 35.006 -95.31200000000001Q44.62 -102.12 58.604 -102.12Q72.404 -102.12 82.386 -95.26599999999999Q92.368 -88.41199999999999 97.704 -76.544Q103.03999999999999 -64.676 103.03999999999999 -49.772Q103.03999999999999 -34.868 97.704 -23.0Q92.368 -11.132 82.386 -4.186Q72.404 2.76 58.512 2.76ZM12.788 0.0V-132.48H29.256V-73.14H27.416V0.0ZM56.488 -12.236Q66.332 -12.236 72.77199999999999 -17.204Q79.212 -22.172 82.432 -30.682000000000002Q85.652 -39.192 85.652 -49.772Q85.652 -60.26 82.47800000000001 -68.724Q79.304 -77.188 72.726 -82.156Q66.148 -87.124 56.028 -87.124Q46.368 -87.124 40.019999999999996 -82.386Q33.672 -77.648 30.543999999999997 -69.22999999999999Q27.416 -60.812 27.416 -49.772Q27.416 -38.916 30.497999999999998 -30.406Q33.58 -21.896 40.019999999999996 -17.066000000000003Q46.46 -12.236 56.488 -12.236ZM128.8 -116.932V-133.85999999999999H145.176V-116.932ZM128.8 0.0V-99.36H145.176V0.0ZM222.088 2.76Q208.10399999999998 2.76 198.536 -4.186Q188.968 -11.132 184.046 -23.046Q179.124 -34.96 179.124 -49.772Q179.124 -64.768 184.046 -76.636Q188.968 -88.504 198.582 -95.31200000000001Q208.196 -102.12 222.18 -102.12Q235.98 -102.12 245.962 -95.26599999999999Q255.944 -88.41199999999999 261.28 -76.544Q266.616 -64.676 266.616 -49.772Q266.616 -34.868 261.28 -23.0Q255.944 -11.132 245.962 -4.186Q235.98 2.76 222.088 2.76ZM176.364 44.16V-99.36H190.992V-26.22H192.832V44.16ZM220.064 -12.236Q229.908 -12.236 236.348 -17.204Q242.788 -22.172 246.008 -30.682000000000002Q249.228 -39.192 249.228 -49.772Q249.228 -60.26 246.054 -68.724Q242.88 -77.188 236.302 -82.156Q229.724 -87.124 219.60399999999998 -87.124Q209.944 -87.124 203.596 -82.386Q197.248 -77.648 194.12 -69.22999999999999Q190.992 -60.812 190.992 -49.772Q190.992 -38.916 194.074 -30.406Q197.156 -21.896 203.596 -17.066000000000003Q210.036 -12.236 220.064 -12.236ZM332.856 2.76Q318.044 2.76 307.326 -3.9560000000000004Q296.608 -10.672 290.812 -22.54Q285.016 -34.408 285.016 -49.772Q285.016 -65.41199999999999 290.904 -77.18799999999999Q296.79200000000003 -88.964 307.55600000000004 -95.542Q318.32 -102.12 332.856 -102.12Q347.76 -102.12 358.524 -95.45Q369.288 -88.78 375.038 -76.958Q380.788 -65.136 380.788 -49.772Q380.788 -34.224 374.992 -22.401999999999997Q369.196 -10.58 358.432 -3.91Q347.668 2.76 332.856 2.76ZM332.856 -12.788Q348.312 -12.788 355.856 -23.092Q363.4 -33.396 363.4 -49.772Q363.4 -66.608 355.764 -76.59Q348.128 -86.572 332.856 -86.572Q322.46000000000004 -86.572 315.744 -81.88Q309.028 -77.188 305.716 -68.908Q302.404 -60.628 302.404 -49.772Q302.404 -33.028 310.132 -22.908Q317.86 -12.788 332.856 -12.788ZM406.548 0.0V-135.24H422.92400000000004V0.0ZM482.44800000000004 2.76Q471.31600000000003 2.76 463.818 -1.334Q456.32 -5.428 452.502 -12.144Q448.684 -18.86 448.684 -26.864Q448.684 -34.684 451.674 -40.434Q454.664 -46.184 460.092 -50.001999999999995Q465.52 -53.82 473.064 -56.028Q480.148 -57.96 488.934 -59.385999999999996Q497.72 -60.812 506.736 -62.007999999999996Q515.752 -63.204 523.572 -64.30799999999999L517.684 -60.903999999999996Q517.96 -74.152 512.394 -80.5Q506.82800000000003 -86.848 493.212 -86.848Q484.196 -86.848 477.434 -82.75399999999999Q470.672 -78.66 467.91200000000003 -69.46L452.36400000000003 -74.152Q455.952 -87.216 466.256 -94.668Q476.56 -102.12 493.396 -102.12Q506.92 -102.12 516.626 -97.28999999999999Q526.332 -92.46 530.564 -82.708Q532.6800000000001 -78.108 533.232 -72.726Q533.784 -67.344 533.784 -61.455999999999996V0.0H519.248V-23.828L522.652 -21.62Q517.04 -9.568 506.966 -3.404Q496.892 2.76 482.44800000000004 2.76ZM484.932 -10.948Q493.764 -10.948 500.25 -14.122Q506.736 -17.296 510.692 -22.494Q514.648 -27.692 515.844 -33.856Q517.224 -38.455999999999996 517.3620000000001 -44.114Q517.5 -49.772 517.5 -52.808L523.204 -50.324Q515.2 -49.22 507.47200000000004 -48.208Q499.744 -47.196 492.84400000000005 -46.046Q485.944 -44.896 480.42400000000004 -43.332Q476.37600000000003 -42.044 472.83400000000006 -40.019999999999996Q469.29200000000003 -37.996 467.13 -34.822Q464.968 -31.648 464.968 -26.956Q464.968 -22.908 467.038 -19.228Q469.108 -15.548 473.478 -13.248000000000001Q477.848 -10.948 484.932 -10.948ZM561.384 0.0V-99.36H576.0120000000001V-75.348L573.62 -78.476Q575.368 -83.076 578.174 -86.94Q580.98 -90.804 584.476 -93.288Q588.34 -96.416 593.216 -98.072Q598.092 -99.728 603.152 -100.05Q608.212 -100.372 612.628 -99.36V-83.996Q607.476 -85.376 601.312 -84.732Q595.148 -84.088 589.904 -80.224Q585.12 -76.82 582.498 -71.94399999999999Q579.876 -67.068 578.864 -61.41Q577.852 -55.752 577.852 -49.864V0.0Z" fill="#111111"/>
</svg>