<svg xmlns="http://www.w3.org/2000/svg" viewBox="-14.1 -187.3 1490.4 263.5" fill="none">
<circle cx="117.64" cy="-55.53" r="114.34" stroke="#111111" stroke-width="6.59"/>
<circle cx="117.64" cy="-116.82" r="53.05" stroke="#111111" stroke-width="6.59"/>
<circle cx="64.56" cy="-24.89" r="53.05" stroke="#111111" stroke-width="6.59"/>
<circle cx="170.71" cy="-24.89" r="53.05" stroke="#111111" stroke-width="6.59"/>
<path transform="translate(315.27,0)" d="M20.8 -105.2Q20.8 -128.8 30.6 -140.10000000000002Q40.400000000000006 -151.4 59.0 -151.4Q66.8 -151.4 72.1 -149.10000000000002Q77.4 -146.8 80.2 -143.0Q83.0 -139.20000000000002 83.0 -134.6Q83.0 -130.0 80.2 -126.4Q77.4 -122.80000000000001 72.0 -122.80000000000001Q66.60000000000001 -122.60000000000001 63.800000000000004 -125.80000000000001Q61.0 -129.0 61.0 -133.0Q61.0 -134.20000000000002 61.2 -135.20000000000002Q61.400000000000006 -136.20000000000002 61.6 -137.4Q60.6 -138.6 58.900000000000006 -139.1Q57.2 -139.6 55.800000000000004 -139.6Q51.6 -139.6 49.2 -137.1Q46.800000000000004 -134.6 46.0 -131.0Q45.2 -127.4 45.2 -123.4V-100.0H69.0V-87.2L45.2 -86.60000000000001L45.400000000000006 -28.8Q45.400000000000006 -25.6 45.300000000000004 -21.0Q45.2 -16.400000000000002 44.6 -12.200000000000001Q48.0 -12.600000000000001 51.900000000000006 -12.700000000000001Q55.800000000000004 -12.8 58.2 -12.8V0.0H9.0V-10.600000000000001Q14.8 -10.600000000000001 17.3 -13.100000000000001Q19.8 -15.600000000000001 20.4 -20.200000000000003Q21.0 -24.8 21.0 -30.6L20.8 -86.2L5.6000000000000005 -86.0V-100.0H20.8ZM126.0 3.2Q111.6 3.2 100.4 -3.3000000000000003Q89.2 -9.8 83.0 -21.700000000000003Q76.8 -33.6 76.8 -49.800000000000004Q76.8 -63.800000000000004 83.0 -76.0Q89.2 -88.2 100.5 -95.7Q111.8 -103.2 126.8 -103.2Q135.2 -103.2 143.0 -100.80000000000001Q150.8 -98.4 157.0 -92.80000000000001Q163.2 -87.2 166.9 -78.0Q170.60000000000002 -68.8 170.4 -55.6L103.19999999999999 -54.400000000000006Q103.19999999999999 -42.0 106.1 -32.5Q109.0 -23.0 115.6 -17.5Q122.2 -12.0 133.0 -12.0Q137.8 -12.0 143.3 -13.7Q148.8 -15.4 154.20000000000002 -18.900000000000002Q159.60000000000002 -22.400000000000002 163.8 -27.6L171.4 -20.6Q164.8 -11.0 156.8 -5.8Q148.8 -0.6000000000000001 140.8 1.3Q132.8 3.2 126.0 3.2ZM104.19999999999999 -66.4H145.8Q145.6 -74.4 143.5 -79.9Q141.4 -85.4 137.4 -88.30000000000001Q133.4 -91.2 127.6 -91.2Q117.8 -91.2 111.9 -84.7Q106.0 -78.2 104.19999999999999 -66.4ZM116.0 -114.0 108.0 -121.0 124.60000000000001 -148.6Q127.0 -152.4 130.0 -153.9Q133.0 -155.4 136.10000000000002 -155.2Q139.20000000000002 -155.0 141.4 -153.20000000000002Q143.8 -151.0 144.4 -147.9Q145.0 -144.8 143.9 -141.5Q142.8 -138.20000000000002 139.60000000000002 -135.20000000000002ZM184.00000000000003 0.0V-10.600000000000001Q189.8 -10.600000000000001 192.20000000000002 -13.100000000000001Q194.60000000000002 -15.600000000000001 195.20000000000002 -20.200000000000003Q195.8 -24.8 195.8 -30.6V-68.2Q195.8 -71.8 196.0 -75.80000000000001Q196.20000000000002 -79.80000000000001 196.60000000000002 -84.0Q193.40000000000003 -83.80000000000001 189.3 -83.60000000000001Q185.20000000000002 -83.4 182.60000000000002 -83.2V-96.2Q191.60000000000002 -96.2 197.40000000000003 -97.1Q203.20000000000002 -98.0 206.40000000000003 -99.4Q209.60000000000002 -100.80000000000001 211.00000000000003 -102.0H219.40000000000003Q219.8 -99.80000000000001 219.8 -98.4Q219.8 -97.0 220.0 -95.5Q220.20000000000002 -94.0 220.60000000000002 -91.2Q224.60000000000002 -94.60000000000001 229.90000000000003 -97.30000000000001Q235.20000000000002 -100.0 240.60000000000002 -101.6Q246.00000000000003 -103.2 250.60000000000002 -103.2Q268.6 -103.2 276.40000000000003 -92.6Q284.20000000000005 -82.0 284.20000000000005 -58.800000000000004V-28.6Q284.20000000000005 -25.400000000000002 284.1 -20.900000000000002Q284.0 -16.400000000000002 283.40000000000003 -12.200000000000001Q286.8 -12.600000000000001 290.4 -12.700000000000001Q294.0 -12.8 296.40000000000003 -12.8V0.0H247.8V-10.600000000000001Q253.60000000000002 -10.600000000000001 256.1 -13.100000000000001Q258.6 -15.600000000000001 259.20000000000005 -20.200000000000003Q259.8 -24.8 259.8 -30.6L259.6 -59.0Q259.6 -73.4 255.3 -80.5Q251.00000000000003 -87.60000000000001 241.20000000000005 -87.60000000000001Q235.40000000000003 -87.4 229.8 -84.80000000000001Q224.20000000000002 -82.2 220.40000000000003 -78.2Q220.60000000000002 -75.8 220.60000000000002 -73.2Q220.60000000000002 -70.60000000000001 220.60000000000002 -68.0L220.40000000000003 -28.6Q220.40000000000003 -25.400000000000002 220.3 -20.900000000000002Q220.20000000000002 -16.400000000000002 219.60000000000002 -12.200000000000001Q222.8 -12.600000000000001 226.5 -12.700000000000001Q230.20000000000002 -12.8 232.60000000000002 -12.8V0.0ZM307.6 -10.600000000000001Q313.40000000000003 -10.600000000000001 315.80000000000007 -13.100000000000001Q318.20000000000005 -15.600000000000001 318.80000000000007 -20.200000000000003Q319.40000000000003 -24.8 319.40000000000003 -30.6V-68.0Q319.40000000000003 -71.4 319.6 -75.5Q319.80000000000007 -79.60000000000001 320.20000000000005 -84.0Q316.80000000000007 -83.80000000000001 312.80000000000007 -83.60000000000001Q308.80000000000007 -83.4 306.20000000000005 -83.2V-96.2Q315.20000000000005 -96.2 321.1 -97.1Q327.00000000000006 -98.0 330.30000000000007 -99.4Q333.6 -100.80000000000001 335.00000000000006 -102.0H344.00000000000006V-28.6Q344.00000000000006 -25.400000000000002 343.9000000000001 -20.900000000000002Q343.80000000000007 -16.400000000000002 343.20000000000005 -12.200000000000001Q346.40000000000003 -12.600000000000001 350.1 -12.700000000000001Q353.80000000000007 -12.8 356.20000000000005 -12.8V0.0H307.6ZM330.6000000000001 -119.2Q324.80000000000007 -119.2 320.80000000000007 -123.5Q316.80000000000007 -127.80000000000001 316.80000000000007 -134.0Q316.80000000000007 -140.20000000000002 320.9000000000001 -144.60000000000002Q325.00000000000006 -149.0 330.6000000000001 -149.0Q336.4000000000001 -149.0 340.30000000000007 -144.60000000000002Q344.20000000000005 -140.20000000000002 344.20000000000005 -134.0Q344.20000000000005 -127.80000000000001 340.4000000000001 -123.5Q336.6000000000001 -119.2 330.6000000000001 -119.2ZM366.6 0.0V-10.600000000000001Q371.20000000000005 -12.200000000000001 374.80000000000007 -15.700000000000003Q378.40000000000003 -19.200000000000003 383.0 -24.6L401.20000000000005 -46.6Q398.20000000000005 -50.400000000000006 394.70000000000005 -54.800000000000004Q391.20000000000005 -59.2 387.90000000000003 -63.300000000000004Q384.6 -67.4 381.6 -70.8Q378.40000000000003 -75.0 375.1 -79.6Q371.8 -84.2 370.6 -87.60000000000001L363.8 -87.2V-100.0H407.0V-89.4Q400.40000000000003 -89.2 400.5 -85.7Q400.6 -82.2 405.40000000000003 -76.0L415.40000000000003 -63.6L426.6 -77.0Q429.20000000000005 -80.2 431.5 -82.9Q433.8 -85.60000000000001 436.20000000000005 -88.0L425.0 -87.2V-100.0H459.40000000000003V-89.4Q455.0 -87.80000000000001 451.4 -85.4Q447.8 -83.0 444.6 -79.7Q441.40000000000003 -76.4 437.6 -71.60000000000001L423.40000000000003 -54.6L448.20000000000005 -25.200000000000003Q450.8 -22.0 453.1 -19.0Q455.40000000000003 -16.0 457.40000000000003 -12.4L465.0 -12.8V0.0H420.6V-10.600000000000001Q426.6 -10.8 427.5 -13.4Q428.40000000000003 -16.0 424.6 -20.400000000000002L409.6 -37.4L397.6 -22.200000000000003Q396.0 -20.0 393.4 -17.1Q390.8 -14.200000000000001 388.6 -12.200000000000001L399.8 -12.8V0.0Z" fill="#C65D2E"/>
<path transform="translate(841.27,0)" d="M58.512 2.76Q44.528 2.76 34.96 -4.186Q25.392 -11.132 20.47 -23.046Q15.548 -34.96 15.548 -49.772Q15.548 -64.768 20.47 -76.636Q25.392 -88.504 35.006 -95.31200000000001Q44.62 -102.12 58.604 -102.12Q72.404 -102.12 82.386 -95.26599999999999Q92.368 -88.41199999999999 97.704 -76.544Q103.03999999999999 -64.676 103.03999999999999 -49.772Q103.03999999999999 -34.868 97.704 -23.0Q92.368 -11.132 82.386 -4.186Q72.404 2.76 58.512 2.76ZM12.788 0.0V-132.48H29.256V-73.14H27.416V0.0ZM56.488 -12.236Q66.332 -12.236 72.77199999999999 -17.204Q79.212 -22.172 82.432 -30.682000000000002Q85.652 -39.192 85.652 -49.772Q85.652 -60.26 82.47800000000001 -68.724Q79.304 -77.188 72.726 -82.156Q66.148 -87.124 56.028 -87.124Q46.368 -87.124 40.019999999999996 -82.386Q33.672 -77.648 30.543999999999997 -69.22999999999999Q27.416 -60.812 27.416 -49.772Q27.416 -38.916 30.497999999999998 -30.406Q33.58 -21.896 40.019999999999996 -17.066000000000003Q46.46 -12.236 56.488 -12.236ZM128.8 -116.932V-133.85999999999999H145.176V-116.932ZM128.8 0.0V-99.36H145.176V0.0ZM222.088 2.76Q208.10399999999998 2.76 198.536 -4.186Q188.968 -11.132 184.046 -23.046Q179.124 -34.96 179.124 -49.772Q179.124 -64.768 184.046 -76.636Q188.968 -88.504 198.582 -95.31200000000001Q208.196 -102.12 222.18 -102.12Q235.98 -102.12 245.962 -95.26599999999999Q255.944 -88.41199999999999 261.28 -76.544Q266.616 -64.676 266.616 -49.772Q266.616 -34.868 261.28 -23.0Q255.944 -11.132 245.962 -4.186Q235.98 2.76 222.088 2.76ZM176.364 44.16V-99.36H190.992V-26.22H192.832V44.16ZM220.064 -12.236Q229.908 -12.236 236.348 -17.204Q242.788 -22.172 246.008 -30.682000000000002Q249.228 -39.192 249.228 -49.772Q249.228 -60.26 246.054 -68.724Q242.88 -77.188 236.302 -82.156Q229.724 -87.124 219.60399999999998 -87.124Q209.944 -87.124 203.596 -82.386Q197.248 -77.648 194.12 -69.22999999999999Q190.992 -60.812 190.992 -49.772Q190.992 -38.916 194.074 -30.406Q197.156 -21.896 203.596 -17.066000000000003Q210.036 -12.236 220.064 -12.236ZM332.856 2.76Q318.044 2.76 307.326 -3.9560000000000004Q296.608 -10.672 290.812 -22.54Q285.016 -34.408 285.016 -49.772Q285.016 -65.41199999999999 290.904 -77.18799999999999Q296.79200000000003 -88.964 307.55600000000004 -95.542Q318.32 -102.12 332.856 -102.12Q347.76 -102.12 358.524 -95.45Q369.288 -88.78 375.038 -76.958Q380.788 -65.136 380.788 -49.772Q380.788 -34.224 374.992 -22.401999999999997Q369.196 -10.58 358.432 -3.91Q347.668 2.76 332.856 2.76ZM332.856 -12.788Q348.312 -12.788 355.856 -23.092Q363.4 -33.396 363.4 -49.772Q363.4 -66.608 355.764 -76.59Q348.128 -86.572 332.856 -86.572Q322.46000000000004 -86.572 315.744 -81.88Q309.028 -77.188 305.716 -68.908Q302.404 -60.628 302.404 -49.772Q302.404 -33.028 310.132 -22.908Q317.86 -12.788 332.856 -12.788ZM406.548 0.0V-135.24H422.92400000000004V0.0ZM482.44800000000004 2.76Q471.31600000000003 2.76 463.818 -1.334Q456.32 -5.428 452.502 -12.144Q448.684 -18.86 448.684 -26.864Q448.684 -34.684 451.674 -40.434Q454.664 -46.184 460.092 -50.001999999999995Q465.52 -53.82 473.064 -56.028Q480.148 -57.96 488.934 -59.385999999999996Q497.72 -60.812 506.736 -62.007999999999996Q515.752 -63.204 523.572 -64.30799999999999L517.684 -60.903999999999996Q517.96 -74.152 512.394 -80.5Q506.82800000000003 -86.848 493.212 -86.848Q484.196 -86.848 477.434 -82.75399999999999Q470.672 -78.66 467.91200000000003 -69.46L452.36400000000003 -74.152Q455.952 -87.216 466.256 -94.668Q476.56 -102.12 493.396 -102.12Q506.92 -102.12 516.626 -97.28999999999999Q526.332 -92.46 530.564 -82.708Q532.6800000000001 -78.108 533.232 -72.726Q533.784 -67.344 533.784 -61.455999999999996V0.0H519.248V-23.828L522.652 -21.62Q517.04 -9.568 506.966 -3.404Q496.892 2.76 482.44800000000004 2.76ZM484.932 -10.948Q493.764 -10.948 500.25 -14.122Q506.736 -17.296 510.692 -22.494Q514.648 -27.692 515.844 -33.856Q517.224 -38.455999999999996 517.3620000000001 -44.114Q517.5 -49.772 517.5 -52.808L523.204 -50.324Q515.2 -49.22 507.47200000000004 -48.208Q499.744 -47.196 492.84400000000005 -46.046Q485.944 -44.896 480.42400000000004 -43.332Q476.37600000000003 -42.044 472.83400000000006 -40.019999999999996Q469.29200000000003 -37.996 467.13 -34.822Q464.968 -31.648 464.968 -26.956Q464.968 -22.908 467.038 -19.228Q469.108 -15.548 473.478 -13.248000000000001Q477.848 -10.948 484.932 -10.948ZM561.384 0.0V-99.36H576.0120000000001V-75.348L573.62 -78.476Q575.368 -83.076 578.174 -86.94Q580.98 -90.804 584.476 -93.288Q588.34 -96.416 593.216 -98.072Q598.092 -99.728 603.152 -100.05Q608.212 -100.372 612.628 -99.36V-83.996Q607.476 -85.376 601.312 -84.732Q595.148 -84.088 589.904 -80.224Q585.12 -76.82 582.498 -71.94399999999999Q579.876 -67.068 578.864 -61.41Q577.852 -55.752 577.852 -49.864V0.0Z" fill="#111111"/></svg>